<?xml version="1.0" encoding="UTF-8"?>
<svg xmlns="http://www.w3.org/2000/svg" xmlns:xlink="http://www.w3.org/1999/xlink" viewBox="0 0 685.69 754.14">
  <defs>
    <style>
      .cls-1 {
        fill: #87898c;
      }

      .cls-2 {
        fill: #b9bbbd;
      }

      .cls-3 {
        fill: #d4d5d7;
      }

      .cls-4 {
        fill: #fff;
      }

      .cls-5 {
        fill: #939598;
      }

      .cls-6 {
        fill: #707173;
      }

      .cls-7 {
        isolation: isolate;
      }

      .cls-8 {
        fill: #e1e2e3;
      }

      .cls-9 {
        fill: #555658;
      }

      .cls-10 {
        fill: #acaeb1;
      }

      .cls-11 {
        fill: #eeeff0;
      }

      .cls-12 {
        mix-blend-mode: multiply;
        opacity: .3;
      }

      .cls-13 {
        fill: #7c7d80;
      }

      .cls-14 {
        fill: #373537;
      }

      .cls-15 {
        fill: #c7c8ca;
      }

      .cls-16 {
        fill: #636466;
      }

      .cls-17 {
        fill: #a0a2a4;
      }

      .cls-18 {
        fill: url(#linear-gradient);
      }

      .cls-19 {
        fill: #474749;
      }

      .cls-20 {
        fill: #231f20;
      }
    </style>
    <linearGradient id="linear-gradient" x1="0" y1="341.19" x2="604.72" y2="341.19" gradientUnits="userSpaceOnUse">
      <stop offset=".27" stop-color="#1fbbaf"/>
      <stop offset=".45" stop-color="#1fbbaf" stop-opacity=".9"/>
      <stop offset=".81" stop-color="#1fbbaf" stop-opacity=".65"/>
      <stop offset="1" stop-color="#1fbbb0" stop-opacity=".5"/>
    </linearGradient>
  </defs>
  <g class="cls-7">
    <g id="Layer_1" data-name="Layer 1">
      <g class="cls-12">
        <path class="cls-4" d="M0,518.25C0,531.12,8.93,546.31,31.77,556.2c32.06,13.93,1.65,2.02,101.19,20.29,44.97,7.11,79.06,29.65,106.95,49.24,60.06,42.19,60.69,112.12,102.92,127.07,42.26,14.99,112.34-100.46,164.63-123.6,52.25-23.16,123.07-19.95,123.07-19.95,30.91,0,55.16-42.36,55.16-73.27V72.17c0-30.91-99.41-70.82-130.35-70.82L55.99,0C25.08,0,0,25.05,0,55.96v462.29Z"/>
        <path class="cls-11" d="M3.09,52.55C1.38,52.55,0,114.82,0,116.52V505.97C0,506.29,.05,518.37,.14,518.66c.39,13.32,9.94,28.47,32.73,37.75,30.06,13.06,6.07,1.89,99.39,19.02,42.16,6.67,79.3,27.8,105.45,46.16,56.31,39.56,64.14,105.11,103.73,119.13,39.62,14.05,114.53-94.19,163.54-115.87,48.98-21.72,120.85-18.71,120.85-18.71,22.41,0,41.31-21.65,49.63-45.5,3.32-8.85,5.18-19.95,5.18-28.22V137.53c0-1.7-1.38-69.79-3.09-69.79,0-28.98-99.79-66.39-128.79-66.39L59.32,.08C30.35,.08,3.09,23.57,3.09,52.55Z"/>
        <path class="cls-8" d="M6.17,49.13C2.76,49.13,0,108.73,0,112.13V506.24c0,.64,.1,12.25,.28,12.83,.79,13.77,10.94,28.88,33.69,37.54,28.06,12.19,10.48,1.77,97.58,17.75,39.35,6.22,79.54,25.95,103.94,43.09,52.55,36.92,67.6,98.1,104.55,111.19,36.97,13.12,116.71-87.91,162.46-108.15,45.72-20.27,118.63-17.46,118.63-17.46,22.73,0,41.85-21.68,49.61-45.76,3.1-8.26,4.83-20.7,4.83-28.42V131.75c0-3.41-2.76-68.43-6.17-68.43,0-27.05-100.17-61.96-127.24-61.96L62.66,.17C35.61,.17,6.17,22.09,6.17,49.13Z"/>
        <path class="cls-3" d="M9.26,45.72C4.14,45.72,0,102.64,0,107.75V506.52C0,507.48,.15,518.61,.42,519.49c1.18,14.22,11.95,29.29,34.65,37.33,26.05,11.32,14.89,1.64,95.77,16.48,36.54,5.78,79.78,24.09,102.44,40.01,48.8,34.28,71.05,91.1,105.37,103.25,34.33,12.18,118.89-81.63,161.37-100.42,42.45-18.82,116.41-16.21,116.41-16.21,23.06,0,42.38-21.71,49.59-46.02,2.88-7.67,4.49-21.46,4.49-28.63V125.96c0-5.11-4.14-67.06-9.26-67.06,0-25.11-100.55-57.54-125.69-57.54L65.99,.25C40.88,.25,9.26,20.61,9.26,45.72Z"/>
        <path class="cls-15" d="M12.34,42.31C5.53,42.31,0,96.55,0,103.36V506.79C0,508.08,.2,518.73,.56,519.9c1.57,14.67,12.95,29.69,35.61,37.12,24.05,10.45,19.31,1.51,93.96,15.21,33.73,5.33,80.02,22.24,100.94,36.93,45.05,31.65,74.51,84.09,106.18,95.3,31.69,11.24,121.07-75.35,160.29-92.7,39.19-17.37,114.19-14.96,114.19-14.96,23.38,0,42.92-21.75,49.57-46.28,2.66-7.08,4.14-22.21,4.14-28.83V120.17c0-6.82-5.53-65.7-12.34-65.7,0-23.18-100.93-53.11-124.13-53.11L69.33,.34C46.15,.34,12.34,19.13,12.34,42.31Z"/>
        <path class="cls-2" d="M15.43,38.9C6.91,38.9,0,90.46,0,98.98V507.06c0,1.61,.25,11.79,.7,13.25,1.96,15.11,13.96,30.1,36.57,36.91,22.04,9.58,23.72,1.39,92.16,13.95,30.92,4.89,80.26,20.39,99.44,33.85,41.29,29.01,77.97,77.08,107,87.36,29.05,10.31,123.25-69.07,159.2-84.97,35.92-15.93,111.97-13.72,111.97-13.72,23.7,0,43.46-21.78,49.56-46.54,2.44-6.49,3.8-22.97,3.8-29.03V114.39c0-8.52-6.91-64.34-15.43-64.34,0-21.25-101.31-48.69-122.58-48.69L72.66,.42C51.41,.42,15.43,17.65,15.43,38.9Z"/>
        <path class="cls-10" d="M18.51,35.48C8.29,35.48,0,84.36,0,94.59V507.34c0,1.93,.3,11.64,.84,13.39,2.36,15.56,14.96,30.51,37.53,36.7,20.04,8.71,28.13,1.26,90.35,12.68,28.11,4.45,80.5,18.53,97.93,30.78,37.54,26.37,81.42,70.07,107.81,79.42,26.41,9.37,125.44-62.79,158.12-77.25,32.66-14.48,109.76-12.47,109.76-12.47,24.03,0,44-21.81,49.54-46.79,2.22-5.9,3.45-23.72,3.45-29.23V108.6c0-10.23-8.29-62.98-18.51-62.98,0-19.32-101.69-44.26-121.03-44.26L75.99,.51C56.68,.51,18.51,16.17,18.51,35.48Z"/>
        <path class="cls-17" d="M21.6,32.07C9.67,32.07,0,78.27,0,90.2V507.61C0,509.86,.34,519.1,.98,521.14c2.75,16.01,15.96,30.92,38.49,36.49,18.04,7.84,32.55,1.14,88.54,11.41,25.3,4,80.74,16.68,96.43,27.7,33.79,23.73,84.88,63.07,108.63,71.48,23.77,8.43,127.62-56.51,157.03-69.52,29.39-13.03,107.54-11.22,107.54-11.22,24.35,0,44.53-21.84,49.52-47.05,1.99-5.31,3.11-24.47,3.11-29.44V102.81c0-11.93-9.67-61.62-21.6-61.62,0-17.39-102.07-39.83-119.47-39.83L79.33,.59C61.94,.59,21.6,14.69,21.6,32.07Z"/>
        <path class="cls-5" d="M24.69,28.66C11.05,28.66,0,72.18,0,85.82V507.88c0,2.57,.39,11.33,1.12,13.67,3.14,16.46,16.97,31.33,39.45,36.28,16.03,6.97,36.96,1.01,86.73,10.14,22.48,3.56,80.98,14.83,94.93,24.62,30.03,21.1,88.33,56.06,109.45,63.54,21.13,7.5,129.8-50.23,155.94-61.8,26.13-11.58,105.32-9.98,105.32-9.98,24.68,0,45.07-21.87,49.51-47.31,1.77-4.72,2.76-25.23,2.76-29.64V97.03c0-13.63-11.05-60.26-24.69-60.26,0-15.45-102.45-35.41-117.92-35.41L82.66,.68c-15.45,0-57.98,12.53-57.98,27.98Z"/>
        <path class="cls-1" d="M27.77,25.25C12.43,25.25,0,66.09,0,81.43V508.16c0,2.9,.44,11.18,1.27,13.81,3.53,16.91,17.97,31.74,40.41,36.07,14.03,6.09,41.38,.88,84.92,8.88,19.67,3.11,81.22,12.97,93.42,21.54,26.28,18.46,91.79,49.05,110.26,55.59,18.49,6.56,131.98-43.95,154.86-54.07,22.86-10.13,103.1-8.73,103.1-8.73,25,0,45.61-21.9,49.49-47.57,1.55-4.13,2.42-25.98,2.42-29.84V91.24c0-15.34-12.43-58.9-27.77-58.9,0-13.52-102.83-30.98-116.37-30.98L86,.76c-13.52,0-58.22,10.96-58.22,24.48Z"/>
        <path class="cls-13" d="M30.86,21.83C13.82,21.83,0,60,0,77.05V508.43c0,3.22,.49,11.03,1.41,13.94,3.93,17.36,18.98,32.15,41.36,35.86,12.02,5.22,45.79,.76,83.12,7.61,16.86,2.67,81.46,11.12,91.92,18.47,22.52,15.82,95.24,42.04,111.08,47.65,15.85,5.62,134.16-37.67,153.77-46.35,19.59-8.69,100.88-7.48,100.88-7.48,25.32,0,46.15-21.93,49.47-47.83,1.33-3.54,2.07-26.74,2.07-30.05V85.45c0-17.04-13.81-57.54-30.86-57.54,0-11.59-103.21-26.56-114.81-26.56L89.33,.85c-11.59,0-58.47,9.39-58.47,20.98Z"/>
        <path class="cls-6" d="M33.94,18.42C15.2,18.42,0,53.91,0,72.66V508.71c0,3.54,.54,10.88,1.55,14.08,4.32,17.81,19.98,32.55,42.32,35.65,10.02,4.35,50.2,.63,81.31,6.34,14.05,2.22,81.7,9.27,90.42,15.39,18.77,13.19,98.7,35.04,111.89,39.71,13.21,4.68,136.35-31.4,152.69-38.62,16.33-7.24,98.66-6.24,98.66-6.24,25.65,0,46.68-21.96,49.46-48.08,1.11-2.95,1.73-27.49,1.73-30.25V79.66c0-18.75-15.2-56.18-33.94-56.18,0-9.66-103.59-22.13-113.26-22.13L92.66,.93c-9.66,0-58.72,7.83-58.72,17.49Z"/>
        <path class="cls-16" d="M37.03,15.01C16.58,15.01,0,47.82,0,68.27V508.98c0,3.86,.59,10.72,1.69,14.22,4.71,18.26,20.99,32.96,43.28,35.44,8.02,3.48,54.62,.5,79.5,5.07,11.24,1.78,81.94,7.41,88.91,12.31,15.02,10.55,102.15,28.03,112.71,31.77,10.56,3.75,138.53-25.12,151.6-30.9,13.06-5.79,96.45-4.99,96.45-4.99,25.97,0,47.22-21.99,49.44-48.34,.89-2.36,1.38-28.25,1.38-30.45V73.88c0-20.45-16.58-54.82-37.03-54.82,0-7.73-103.97-17.7-111.71-17.7L96,1.02c-7.73,0-58.97,6.26-58.97,13.99Z"/>
        <path class="cls-9" d="M40.11,11.59C17.96,11.59,0,41.73,0,63.89V509.25c0,4.18,.64,10.57,1.83,14.36,5.1,18.7,21.99,33.37,44.24,35.23,6.01,2.61,59.03,.38,77.69,3.8,8.43,1.33,82.18,5.56,87.41,9.23,11.26,7.91,105.61,21.02,113.52,23.83,7.92,2.81,140.71-18.84,150.51-23.17,9.8-4.34,94.23-3.74,94.23-3.74,26.3,0,47.76-22.02,49.42-48.6,.66-1.77,1.04-29,1.04-30.65V68.09c0-22.16-17.96-53.46-40.11-53.46,0-5.8-104.35-13.28-110.15-13.28L99.33,1.1c-5.8,0-59.22,4.7-59.22,10.49Z"/>
        <path class="cls-19" d="M43.2,8.18C19.34,8.18,0,35.64,0,59.5V509.53C0,514.03,.69,519.95,1.97,524.03c5.5,19.15,22.99,33.78,45.2,35.02,4.01,1.74,63.44,.25,75.89,2.54,5.62,.89,82.42,3.71,85.91,6.16,7.51,5.27,109.06,14.01,114.34,15.88,5.28,1.87,142.89-12.56,149.43-15.45,6.53-2.9,92.01-2.49,92.01-2.49,26.62,0,48.3-22.05,49.4-48.86,.44-1.18,.69-29.75,.69-30.86V62.3c0-23.86-19.34-52.1-43.2-52.1,0-3.86-104.73-8.85-108.6-8.85l-360.37-.17c-3.86,0-59.46,3.13-59.46,6.99Z"/>
        <path class="cls-14" d="M46.29,4.77C20.72,4.77,0,29.55,0,55.12V509.8c0,4.83,.74,10.26,2.11,14.64,5.89,19.6,24,34.19,46.16,34.81,2,.87,67.86,.13,74.08,1.27,2.81,.44,82.66,1.85,84.4,3.08,3.75,2.64,112.52,7.01,115.16,7.94,2.64,.94,145.07-6.28,148.34-7.72,3.27-1.45,89.79-1.25,89.79-1.25,26.94,0,48.83-22.08,49.39-49.12,.22-.59,.35-30.51,.35-31.06V56.52c0-25.56-20.72-50.74-46.29-50.74,0-1.93-105.11-4.43-107.05-4.43l-350.45-.08c-1.93,0-59.71,1.57-59.71,3.5Z"/>
        <path class="cls-20" d="M49.37,1.36h505.97c27.25,0,49.37,22.12,49.37,49.37V510.08c0,27.25-22.12,49.37-49.37,49.37H49.37C22.12,559.45,0,537.33,0,510.08V50.73C0,23.48,22.12,1.36,49.37,1.36Z"/>
      </g>
      <g>
        <path class="cls-18" d="M49.37,0h505.97c27.27,0,49.37,22.07,49.37,49.34V510.08c0,27.27-22.1,49.37-49.37,49.37h-97.06l-161.36,122.94-161.39-122.94H49.37C22.1,559.45,0,537.34,0,510.08V49.34C0,22.07,22.1,0,49.37,0Z"/>
        <path class="cls-4" d="M300.8,182.1c-10.71,0-19.88-3.29-27.49-9.87-7.61-6.58-11.42-15.88-11.42-27.91,0-10.9,3.9-19.88,11.7-26.92,7.8-7.05,16.87-10.57,27.21-10.57s18.79,3.2,26.5,9.58c7.71,6.39,11.56,15.7,11.56,27.91s-3.76,21.1-11.28,27.77c-7.52,6.67-16.45,10.01-26.78,10.01Zm38.06,79.5v222.43c0,15.41-3.67,27.06-11,34.96-7.33,7.89-16.63,11.84-27.91,11.84s-20.44-4.04-27.49-12.12c-7.05-8.08-10.57-19.64-10.57-34.68v-220.18c0-15.22,3.52-26.69,10.57-34.39,7.05-7.7,16.21-11.56,27.49-11.56s20.58,3.85,27.91,11.56c7.33,7.71,11,18.42,11,32.14Z"/>
      </g>
    </g>
  </g>
</svg>