{
  "accessors": [
    {
      "bufferView": 2,
      "componentType": 5126,
      "count": 12,
      "max": [
        16.83962059020996,
        6.429627895355225,
        -1.0299439430236816
      ],
      "min": [
        -5.480838775634766,
        -8.749286651611328,
        -31.20932960510254
      ],
      "type": "VEC3"
    },
    {
      "bufferView": 2,
      "byteOffset": 144,
      "componentType": 5126,
      "count": 12,
      "max": [
        -0.00012207399413455278,
        0.0,
        -0.005462883971631527
      ],
      "min": [
        -0.9999850988388062,
        0.0,
        -1.0
      ],
      "type": "VEC3"
    },
    {
      "bufferView": 1,
      "componentType": 5126,
      "count": 12,
      "max": [
        0.3552249073982239,
        1.0
      ],
      "min": [
        0.0,
        8.67173014285072e-07
      ],
      "type": "VEC2"
    },
    {
      "bufferView": 0,
      "componentType": 5125,
      "count": 18,
      "type": "SCALAR"
    },
    {
      "bufferView": 2,
      "byteOffset": 288,
      "componentType": 5126,
      "count": 634,
      "max": [
        1.8181270360946655,
        4.094958782196045,
        0.8260735273361206
      ],
      "min": [
        -1.9279370307922363,
        0.13046549260616302,
        -0.6293458938598633
      ],
      "type": "VEC3"
    },
    {
      "bufferView": 2,
      "byteOffset": 7896,
      "componentType": 5126,
      "count": 634,
      "max": [
        1.0,
        0.9996057748794556,
        0.9994156956672668
      ],
      "min": [
        -1.0,
        -0.9996057748794556,
        -0.9994156956672668
      ],
      "type": "VEC3"
    },
    {
      "bufferView": 1,
      "byteOffset": 96,
      "componentType": 5126,
      "count": 634,
      "max": [
        1.0,
        1.0
      ],
      "min": [
        0.0,
        0.0
      ],
      "type": "VEC2"
    },
    {
      "bufferView": 0,
      "byteOffset": 72,
      "componentType": 5125,
      "count": 3042,
      "type": "SCALAR"
    },
    {
      "bufferView": 2,
      "byteOffset": 15504,
      "componentType": 5126,
      "count": 48969,
      "max": [
        5.650443077087402,
        7.643908977508545,
        7.571811199188232
      ],
      "min": [
        -3.7255520820617676,
        -1.6383429765701294,
        -1.6493159532546997
      ],
      "type": "VEC3"
    },
    {
      "bufferView": 2,
      "byteOffset": 603132,
      "componentType": 5126,
      "count": 48969,
      "max": [
        1.0,
        0.9999991059303284,
        0.9999725818634033
      ],
      "min": [
        -1.0,
        -0.9999942183494568,
        -0.9999932050704956
      ],
      "type": "VEC3"
    },
    {
      "bufferView": 1,
      "byteOffset": 5168,
      "componentType": 5126,
      "count": 48969,
      "max": [
        0.9990652799606323,
        0.9985083937644958
      ],
      "min": [
        0.000931739981751889,
        0.0009278479847125709
      ],
      "type": "VEC2"
    },
    {
      "bufferView": 0,
      "byteOffset": 12240,
      "componentType": 5125,
      "count": 137595,
      "type": "SCALAR"
    },
    {
      "bufferView": 2,
      "byteOffset": 1190760,
      "componentType": 5126,
      "count": 68,
      "max": [
        34.12236022949219,
        0.0,
        1.5817420482635498
      ],
      "min": [
        -0.8418990969657898,
        -32.79999923706055,
        -23.191579818725586
      ],
      "type": "VEC3"
    },
    {
      "bufferView": 2,
      "byteOffset": 1191576,
      "componentType": 5126,
      "count": 68,
      "max": [
        1.0,
        1.0,
        1.0
      ],
      "min": [
        -1.0,
        -1.0,
        -1.0
      ],
      "type": "VEC3"
    },
    {
      "bufferView": 1,
      "byteOffset": 396920,
      "componentType": 5126,
      "count": 68,
      "max": [
        2.388256072998047,
        31.26317024230957
      ],
      "min": [
        -21.259309768676758,
        -1.7430360317230225
      ],
      "type": "VEC2"
    },
    {
      "bufferView": 0,
      "byteOffset": 562620,
      "componentType": 5125,
      "count": 126,
      "type": "SCALAR"
    }
  ],
  "asset": {
    "extras": {
      "author": "RaynaudL (https://sketchfab.com/fts_ltx)",
      "license": "CC-BY-NC-4.0 (http://creativecommons.org/licenses/by-nc/4.0/)",
      "source": "https://sketchfab.com/3d-models/modern-bedroom-714b70694e2943c68cfc3ed31234dbce",
      "title": "Modern Bedroom"
    },
    "generator": "Sketchfab-13.86.0",
    "version": "2.0"
  },
  "bufferViews": [
    {
      "buffer": 0,
      "byteLength": 563124,
      "name": "floatBufferViews",
      "target": 34963
    },
    {
      "buffer": 0,
      "byteLength": 397464,
      "byteOffset": 563124,
      "byteStride": 8,
      "name": "floatBufferViews",
      "target": 34962
    },
    {
      "buffer": 0,
      "byteLength": 1192392,
      "byteOffset": 960588,
      "byteStride": 12,
      "name": "floatBufferViews",
      "target": 34962
    }
  ],
  "buffers": [
    {
      "byteLength": 2152980,
      "uri": "scene.bin"
    }
  ],
  "extensionsUsed": [
    "KHR_materials_unlit"
  ],
  "images": [
    {
      "uri": "textures/bed_room_baseColor.png"
    },
    {
      "uri": "textures/material_baseColor.jpeg"
    }
  ],
  "materials": [
    {
      "doubleSided": true,
      "extensions": {
        "KHR_materials_unlit": {}
      },
      "name": "rien",
      "pbrMetallicRoughness": {
        "baseColorFactor": [
          0.0,
          0.0,
          0.0,
          1.0
        ],
        "metallicFactor": 0.0
      }
    },
    {
      "extensions": {
        "KHR_materials_unlit": {}
      },
      "name": "bed_room",
      "pbrMetallicRoughness": {
        "baseColorTexture": {
          "index": 0
        },
        "metallicFactor": 0.0
      }
    },
    {
      "alphaMode": "BLEND",
      "doubleSided": true,
      "emissiveFactor": [
        1.0,
        1.0,
        1.0
      ],
      "extensions": {
        "KHR_materials_unlit": {}
      },
      "name": "light",
      "pbrMetallicRoughness": {
        "baseColorFactor": [
          0.8,
          0.8,
          0.8,
          0.245
        ],
        "metallicFactor": 0.0
      }
    },
    {
      "emissiveFactor": [
        1.0,
        1.0,
        1.0
      ],
      "emissiveTexture": {
        "index": 1
      },
      "extensions": {
        "KHR_materials_unlit": {}
      },
      "name": "material",
      "pbrMetallicRoughness": {
        "baseColorTexture": {
          "index": 1
        },
        "metallicFactor": 0.0
      }
    }
  ],
  "meshes": [
    {
      "name": "sky-material",
      "primitives": [
        {
          "attributes": {
            "NORMAL": 1,
            "POSITION": 0,
            "TEXCOORD_0": 2
          },
          "indices": 3,
          "material": 3,
          "mode": 4
        }
      ]
    },
    {
      "name": "light-material",
      "primitives": [
        {
          "attributes": {
            "NORMAL": 5,
            "POSITION": 4,
            "TEXCOORD_0": 6
          },
          "indices": 7,
          "material": 2,
          "mode": 4
        }
      ]
    },
    {
      "name": "bed_room-material",
      "primitives": [
        {
          "attributes": {
            "NORMAL": 9,
            "POSITION": 8,
            "TEXCOORD_0": 10
          },
          "indices": 11,
          "material": 1,
          "mode": 4
        }
      ]
    },
    {
      "name": "rien-material",
      "primitives": [
        {
          "attributes": {
            "NORMAL": 13,
            "POSITION": 12,
            "TEXCOORD_0": 14
          },
          "indices": 15,
          "material": 0,
          "mode": 4
        }
      ]
    }
  ],
  "nodes": [
    {
      "children": [
        1
      ],
      "matrix": [
        0.20242735743522644,
        0.0,
        0.0,
        0.0,
        0.0,
        4.4947902607722954e-17,
        -0.20242735743522644,
        0.0,
        0.0,
        0.20242735743522644,
        4.4947902607722954e-17,
        0.0,
        0.0,
        0.0,
        0.0,
        1.0
      ],
      "name": "Sketchfab_model"
    },
    {
      "children": [
        2,
        4,
        6,
        8
      ],
      "name": "Collada visual scene group"
    },
    {
      "children": [
        3
      ],
      "matrix": [
        3.13916e-07,
        0.0,
        0.9999999,
        0.0,
        -1.50996e-07,
        -0.9999999,
        4.74001e-14,
        0.0,
        0.9999999,
        -1.50996e-07,
        -3.13916e-07,
        0.0,
        20.85634,
        -8.630209,
        6.316359,
        1.0
      ],
      "name": "sky"
    },
    {
      "mesh": 0,
      "name": "sky-material"
    },
    {
      "children": [
        5
      ],
      "matrix": [
        3.498296,
        0.0,
        0.0,
        0.0,
        0.0,
        -0.6947441,
        2.92914,
        0.0,
        0.0,
        -3.378925,
        -0.8014255,
        0.0,
        0.2330795,
        7.537698,
        4.377955,
        1.0
      ],
      "name": "light"
    },
    {
      "mesh": 1,
      "name": "light-material"
    },
    {
      "children": [
        7
      ],
      "matrix": [
        3.498296,
        0.0,
        0.0,
        0.0,
        0.0,
        -0.6947441,
        2.92914,
        0.0,
        0.0,
        -3.378925,
        -0.8014255,
        0.0,
        0.2330795,
        7.537698,
        4.377955,
        1.0
      ],
      "name": "bed_room"
    },
    {
      "mesh": 2,
      "name": "bed_room-material"
    },
    {
      "children": [
        9
      ],
      "matrix": [
        -1.38111e-07,
        -0.8477207,
        -1.13631e-08,
        0.0,
        -1.0,
        1.62921e-07,
        1.50996e-07,
        0.0,
        -1.50996e-07,
        1.34044e-08,
        -1.0,
        0.0,
        -12.8,
        10.48631,
        0.008413076,
        1.0
      ],
      "name": "black"
    },
    {
      "mesh": 3,
      "name": "rien-material"
    }
  ],
  "samplers": [
    {
      "magFilter": 9729,
      "minFilter": 9987,
      "wrapS": 10497,
      "wrapT": 10497
    }
  ],
  "scene": 0,
  "scenes": [
    {
      "name": "Sketchfab_Scene",
      "nodes": [
        0
      ]
    }
  ],
  "textures": [
    {
      "sampler": 0,
      "source": 0
    },
    {
      "sampler": 0,
      "source": 1
    }
  ]
}
